<?xml version="1.0" standalone="no"?>
<!DOCTYPE svg PUBLIC "-//W3C//DTD SVG 20010904//EN"
 "http://www.w3.org/TR/2001/REC-SVG-20010904/DTD/svg10.dtd">
<svg version="1.0" xmlns="http://www.w3.org/2000/svg"
 width="300.000000pt" height="300.000000pt" viewBox="0 0 300.000000 300.000000"
 preserveAspectRatio="xMidYMid meet">

<g transform="translate(0.000000,300.000000) scale(0.100000,-0.100000)"
fill="#000000" stroke="none">
<path d="M0 1500 l0 -1500 1500 0 1500 0 0 1500 0 1500 -1500 0 -1500 0 0
-1500z m1155 690 l50 -50 -200 -200 -200 -200 198 -198 197 -197 -50 -50 -50
-50 -248 248 -247 247 245 248 c135 137 247 250 250 250 3 1 28 -21 55 -48z
m942 -192 c134 -134 243 -247 243 -253 0 -6 -110 -120 -245 -255 l-245 -245
-45 45 c-25 24 -45 49 -45 55 0 5 86 96 190 200 105 104 190 194 190 200 0 6
-88 98 -195 205 l-195 195 47 47 c26 27 50 48 53 48 2 0 114 -109 247 -242z
m-749 26 c12 -8 22 -19 22 -24 0 -5 -35 -27 -78 -50 -101 -52 -162 -111 -162
-156 0 -44 30 -64 95 -64 53 0 125 16 125 28 -1 34 -15 52 -40 52 -24 0 -70
34 -59 44 10 8 189 15 189 7 0 -5 -10 -11 -21 -14 -14 -4 -20 -11 -16 -20 7
-18 -21 -158 -34 -172 -5 -5 -9 3 -9 21 0 17 -2 33 -5 36 -3 3 -24 -4 -46 -15
-117 -58 -219 -12 -219 98 0 57 26 99 107 175 80 75 108 85 151 54z m483 -123
c37 -37 37 -62 -1 -105 l-31 -34 23 -7 c36 -11 68 -46 68 -74 0 -38 -34 -87
-79 -116 -90 -56 -295 -102 -333 -73 -16 12 -14 20 22 108 78 187 95 240 82
261 -17 26 -17 26 31 43 57 20 73 23 135 25 47 1 57 -3 83 -28z m-312 -85 c-7
-20 -17 -36 -21 -36 -5 0 -1 16 7 36 8 20 15 39 15 42 0 3 3 3 6 -1 3 -3 0
-22 -7 -41z m-51 -137 c-6 -16 -12 -28 -15 -26 -7 7 8 57 18 57 4 0 3 -14 -3
-31z m-975 -571 c-2 -5 -20 -8 -39 -8 -43 0 -44 -19 -4 -48 34 -26 37 -38 13
-64 -32 -36 -101 -14 -90 29 4 14 5 13 6 -4 1 -17 7 -23 24 -23 23 0 47 16 47
32 0 4 -13 14 -30 23 -31 16 -39 42 -18 63 13 13 99 12 91 0z m108 5 l-23 -5
21 -14 c29 -21 28 -68 -4 -99 -26 -27 -64 -32 -83 -13 -13 13 -16 66 -6 93 8
21 60 45 94 43 25 -1 25 -1 1 -5z m266 -6 c-2 -6 -14 -14 -28 -17 -19 -5 -25
-14 -30 -48 -5 -39 -32 -83 -43 -71 -3 3 2 29 10 58 9 29 14 55 11 58 -3 2
-28 6 -55 7 -42 2 -51 0 -55 -16 -4 -15 1 -18 30 -18 20 0 32 -4 28 -10 -3 -5
-19 -10 -36 -10 -22 0 -29 -5 -29 -18 0 -19 -36 -59 -45 -51 -4 5 14 70 34
121 10 27 11 27 111 27 72 0 100 -4 97 -12z m46 -19 c-4 -29 -3 -31 8 -13 13
22 39 45 51 45 4 0 8 -19 9 -42 l1 -43 15 35 c14 32 29 49 44 50 11 0 -30
-113 -48 -132 -16 -18 -39 -25 -29 -9 3 5 1 23 -6 41 -10 29 -12 31 -21 14
-16 -31 -50 -64 -65 -64 -11 0 -12 3 -3 13 6 8 10 34 9 59 -2 42 13 78 31 78
4 0 6 -15 4 -32z m237 -32 c0 -44 -5 -67 -15 -76 -12 -10 -15 -10 -15 4 0 20
-33 21 -50 1 -7 -8 -16 -15 -21 -15 -11 0 -4 50 8 58 6 4 18 21 27 39 15 29
40 52 59 53 4 0 7 -29 7 -64z m114 58 c17 -6 22 -49 7 -58 -4 -3 -6 -17 -3
-31 5 -28 -12 -55 -35 -55 -12 0 -12 3 1 16 18 18 18 17 10 38 -9 24 -33 19
-40 -9 -6 -25 -31 -52 -40 -42 -3 2 2 31 12 63 9 33 16 61 15 64 -6 12 49 23
73 14z m145 -10 c-9 -11 -22 -14 -41 -10 -23 5 -28 2 -28 -14 0 -15 7 -20 25
-20 14 0 25 -4 25 -10 0 -5 -13 -10 -29 -10 -21 0 -30 -6 -34 -22 -8 -29 -7
-29 31 -19 33 10 41 4 20 -17 -14 -14 -102 -17 -93 -3 3 5 9 29 14 53 17 87
17 88 80 88 39 0 42 -2 30 -16z m217 -9 c36 -54 -14 -125 -89 -125 -30 0 -37
3 -29 13 5 6 13 32 17 57 10 65 21 80 55 80 20 0 35 -8 46 -25z m144 16 c0
-14 -29 -22 -56 -15 -20 5 -24 2 -24 -15 0 -17 6 -21 31 -21 17 0 28 -4 24
-10 -3 -5 -19 -10 -36 -10 -16 0 -29 -4 -29 -9 0 -5 -3 -16 -6 -25 -5 -12 1
-14 33 -9 35 6 37 5 24 -10 -9 -11 -29 -17 -58 -17 -40 0 -43 2 -33 19 5 11
10 29 10 41 0 11 7 36 14 55 14 33 18 35 60 35 26 0 46 -4 46 -9z m32 -25 c-7
-62 3 -75 23 -28 15 36 39 62 59 62 3 0 -6 -26 -20 -57 -23 -53 -55 -93 -74
-93 -13 0 -21 109 -10 130 16 30 26 24 22 -14z m208 25 c0 -14 -29 -22 -56
-15 -20 5 -24 2 -24 -15 0 -17 6 -21 31 -21 17 0 28 -4 24 -10 -3 -5 -19 -10
-36 -10 -16 0 -29 -4 -29 -9 0 -5 -3 -16 -6 -25 -5 -12 1 -14 33 -9 35 6 37 5
24 -10 -9 -11 -29 -17 -58 -17 -40 0 -43 2 -33 19 5 11 10 29 10 41 0 11 7 36
14 55 14 33 18 35 60 35 26 0 46 -4 46 -9z m52 -8 c-5 -10 -12 -39 -14 -65 -6
-51 3 -59 43 -38 10 6 19 7 19 2 0 -19 -27 -32 -68 -32 -38 0 -43 2 -37 18 3
9 10 36 14 59 8 43 26 73 43 73 5 0 5 -7 0 -17z m169 10 l-23 -5 21 -14 c46
-33 7 -124 -53 -124 -65 0 -67 108 -3 135 18 8 43 14 57 13 25 -1 25 -1 1 -5z
m133 1 c19 -7 21 -45 4 -62 -7 -7 -23 -12 -36 -12 -17 0 -26 -8 -33 -29 -9
-25 -35 -48 -45 -39 -3 4 29 99 39 116 5 7 3 12 -5 13 -17 1 22 17 44 18 9 1
23 -2 32 -5z m146 -4 c0 -10 -9 -13 -50 -14 -15 -1 -26 -8 -28 -18 -3 -14 3
-18 27 -18 17 0 31 -4 31 -10 0 -5 -13 -10 -28 -10 -21 0 -32 -7 -40 -25 -13
-28 -11 -29 36 -16 17 5 32 6 32 2 0 -18 -28 -31 -68 -31 -37 0 -43 3 -38 18
3 9 10 39 16 66 6 27 13 53 16 58 7 12 94 10 94 -2z m114 -12 c8 -13 6 -22 -8
-36 -11 -13 -14 -22 -7 -27 16 -9 13 -31 -5 -49 -21 -22 -37 -20 -23 3 7 10 9
26 6 35 -9 22 -37 20 -37 -3 0 -20 -24 -51 -40 -51 -11 0 29 133 44 143 18 12
58 3 70 -15z"/>
<path d="M1678 1829 c-24 -9 -47 -54 -33 -67 10 -10 98 33 113 56 14 21 13 22
-19 21 -19 0 -46 -5 -61 -10z"/>
<path d="M1678 1688 l-67 -21 -20 -60 c-12 -33 -19 -62 -17 -64 7 -7 102 20
148 43 51 26 78 57 78 90 0 39 -26 42 -122 12z"/>
<path d="M547 1078 c-25 -40 -30 -78 -11 -85 25 -9 56 33 52 70 -4 38 -22 45
-41 15z"/>
<path d="M1106 1052 c-4 -13 -5 -26 -2 -29 10 -11 18 4 14 29 l-4 23 -8 -23z"/>
<path d="M1217 1103 c-4 -3 -7 -17 -7 -29 0 -18 4 -22 18 -17 24 9 33 25 20
40 -12 14 -21 16 -31 6z"/>
<path d="M1560 1071 c0 -16 -5 -42 -10 -57 -14 -35 -9 -39 22 -14 28 22 40 59
26 84 -15 27 -38 19 -38 -13z"/>
<path d="M2176 1078 c-26 -40 -30 -77 -11 -85 26 -9 57 32 53 70 -4 38 -22 45
-42 15z"/>
<path d="M2310 1075 c0 -28 8 -31 35 -12 21 16 12 37 -16 37 -14 0 -19 -7 -19
-25z"/>
<path d="M2560 1090 c-15 -27 -13 -32 12 -28 27 4 36 33 14 41 -10 4 -20 -1
-26 -13z"/>
</g>
</svg>
